<?xml version="1.0" encoding="utf-8"?>
<!-- Generator: Adobe Illustrator 25.2.0, SVG Export Plug-In . SVG Version: 6.00 Build 0)  -->
<svg version="1.1" id="Layer_1" xmlns="http://www.w3.org/2000/svg" xmlns:xlink="http://www.w3.org/1999/xlink" x="0px" y="0px"
	 viewBox="0 0 5442.52 5442.52" style="enable-background:new 0 0 5442.52 5442.52;" xml:space="preserve">
<path d="M4937.28,3991.91c-6.77,18.91-112.51,390.04-377.21,774.24c-228.51,332.15-461,662.44-832.37,669.44
	c-364.6,6.54-480.37-217.55-898.19-217.55c-418.52,0-547.6,210.54-892.83,224.09c-358.06,14-629.06-358.07-859.21-689.75
	c-467.77-672.71-823.5-1909.59-345.22-2741.02c239.25-413.15,665.24-674.35,1126.94-682.05c352.23-7.23,683.45,235.99,897.03,235.99
	c216.38,0,619.49-293.18,1042.91-250.22c175.77,7.7,676.44,74.23,996.93,541.52c-26.37,16.34-596.62,347.33-589.61,1036.38
	C4213.22,3716.71,4929.11,3988.4,4937.28,3991.91 M3520.67,868.78C3712.54,640.03,3839.75,319.55,3804.97,0
	c-275.43,10.73-607.59,183.93-802.26,412.45c-176.23,205.41-330.99,530.09-289.67,841.24
	C3019.28,1277.26,3332.07,1100.09,3520.67,868.78"/>
</svg>
