<svg id="Layer_1" data-name="Layer 1" xmlns="http://www.w3.org/2000/svg" xmlns:xlink="http://www.w3.org/1999/xlink" viewBox="0 0 97.73 30.74"><defs><style>.cls-1{fill:none;}.cls-2{clip-path:url(#clip-path);}.cls-3{fill:#4285f4;}.cls-4{fill:#ea4335;}.cls-5{fill:#fbbc05;}.cls-6{fill:#34a853;}</style><clipPath id="clip-path" transform="translate(-0.13 -4.4)"><rect class="cls-1" x="-65" y="-141.45" width="228" height="322.45"/></clipPath></defs><title>googlelogo</title><g class="cls-2"><g class="cls-2"><path class="cls-3" d="M12.34,15.35v3.29H20.2a7,7,0,0,1-1.79,4.15,8,8,0,0,1-6.07,2.4,8.62,8.62,0,0,1-8.62-8.74,8.62,8.62,0,0,1,8.62-8.74,8.35,8.35,0,0,1,5.92,2.35l2.32-2.31A11.38,11.38,0,0,0,12.34,4.4a12.21,12.21,0,0,0-12.21,12,12.2,12.2,0,0,0,12.21,12,11.06,11.06,0,0,0,8.4-3.37,10.91,10.91,0,0,0,2.84-7.69,10.65,10.65,0,0,0-.17-2.06Z" transform="translate(-0.13 -4.4)"/><path class="cls-4" d="M33.41,12.68a7.65,7.65,0,0,0-7.79,7.77,7.8,7.8,0,1,0,7.79-7.77m0,12.47A4.48,4.48,0,0,1,29,20.45a4.4,4.4,0,1,1,8.77,0,4.49,4.49,0,0,1-4.39,4.7" transform="translate(-0.13 -4.4)"/><path class="cls-3" d="M71.62,14.42H71.5a5.37,5.37,0,0,0-4.09-1.74,7.55,7.55,0,0,0-7.26,7.77,7.57,7.57,0,0,0,7.26,7.77,5.28,5.28,0,0,0,4.09-1.77h.12v1.08c0,3-1.59,4.56-4.14,4.56a4.3,4.3,0,0,1-3.92-2.76l-3,1.23a7.42,7.42,0,0,0,6.89,4.58c4,0,7.38-2.35,7.38-8.09v-14H71.62ZM67.7,25.15c-2.35,0-4.14-2-4.14-4.7s1.79-4.71,4.14-4.71,4.15,2,4.15,4.73S70,25.15,67.7,25.15" transform="translate(-0.13 -4.4)"/><path class="cls-5" d="M50.79,12.68A7.65,7.65,0,0,0,43,20.45a7.8,7.8,0,1,0,7.79-7.77m0,12.47a4.48,4.48,0,0,1-4.38-4.7,4.4,4.4,0,1,1,8.77,0,4.49,4.49,0,0,1-4.39,4.7" transform="translate(-0.13 -4.4)"/><rect class="cls-6" x="77.4" y="0.32" width="3.36" height="23.49"/><path class="cls-4" d="M91.25,25.15a3.94,3.94,0,0,1-3.77-2.35l10.39-4.29-.35-.88a7.21,7.21,0,0,0-6.65-4.95c-4,0-7.32,3.14-7.32,7.77a7.59,7.59,0,0,0,7.7,7.77,7.74,7.74,0,0,0,6.47-3.44L95.07,23A4.42,4.42,0,0,1,91.25,25.15ZM91,15.59A3.06,3.06,0,0,1,94,17.31l-7,2.9c0-3.26,2.31-4.62,4.08-4.62" transform="translate(-0.13 -4.4)"/></g></g></svg>