<svg id="Layer_1" data-name="Layer 1" xmlns="http://www.w3.org/2000/svg" viewBox="0 0 50.04 33"><defs><style>.cls-1{fill:#007dc5;}</style></defs><title>Intel Logo</title><path class="cls-1" d="M50,30.42c-9.89.91-20.19-.53-21.64-8.26-.7-3.8,1-7.84,3.34-10.35V10.46c-4.15,3.64-6.4,8.24-5.1,13.68,1.65,7,10.49,10.92,24,9.61,5.35-.52,12.34-2.24,17.2-4.91V25.05C63.37,27.68,56.07,29.85,50,30.42ZM76,10.37C73.69-1.08,51.46-1.8,37.13,6.92v1C51.44.52,71.75.57,73.6,11.12c.62,3.49-1.35,7.12-4.86,9.22v2.73C73,21.52,77.3,16.51,76,10.37Z" transform="translate(-26.22 -1)"/><path class="cls-1" d="M67,8.71H64.39V20.25A2.53,2.53,0,0,0,67,23Z" transform="translate(-26.22 -1)"/><path class="cls-1" d="M36.11,12.92h-2.6v7.55a2.53,2.53,0,0,0,2.6,2.71Z" transform="translate(-26.22 -1)"/><rect class="cls-1" x="7.29" y="8.06" width="2.59" height="2.46"/><path class="cls-1" d="M51.64,23.06a2.77,2.77,0,0,1-3-2.89v-10h2.57v2.77h1.94V15H51.22v5a.8.8,0,0,0,.89.91h1v2.14H51.64" transform="translate(-26.22 -1)"/><path class="cls-1" d="M56.37,18.8a2.13,2.13,0,0,0,2.27,2.28,2.89,2.89,0,0,0,2.36-1l1.59,1.51a5.06,5.06,0,0,1-4,1.62c-2.45,0-4.81-1.34-4.81-5.25,0-3.35,2.06-5.24,4.76-5.24s4.32,2.21,4.32,5.12v.93H56.37m2.09-3.93a2,2,0,0,0-1.85,1.07,2.77,2.77,0,0,0-.24,1.1h4C60.28,15.94,59.78,14.87,58.46,14.87Z" transform="translate(-26.22 -1)"/><path class="cls-1" d="M43.09,15c.75,0,1.07.37,1.07,1v7.1h2.57V16a2.82,2.82,0,0,0-3-3H38.39V23.08H41V15Z" transform="translate(-26.22 -1)"/><path class="cls-1" d="M69.77,10.77a1,1,0,1,1,1-1A1,1,0,0,1,69.77,10.77Zm0-1.89a.86.86,0,0,0-.85.86.85.85,0,0,0,.85.85.86.86,0,1,0,0-1.71Zm.46,1.48H70a0,0,0,0,1,0,0l-.27-.44,0,0h-.12v.44s0,0,0,0h-.18s0,0,0,0V9.19c0-.06,0-.09.08-.1h.31c.32,0,.51.09.51.39v0a.31.31,0,0,1-.23.33l.27.47s0,0,0,0A0,0,0,0,1,70.23,10.36ZM70,9.47c0-.12-.08-.16-.25-.16h-.16v.35h.16c.17,0,.25-.06.25-.18Z" transform="translate(-26.22 -1)"/></svg>